<svg xmlns="http://www.w3.org/2000/svg" viewBox="0 0 128 128"><g fill="#00979c" fill-rule="evenodd"><path d="M.3 66.5v-9.6c.2-.1.2-.3.2-.5 3-13.1 11.2-21 24.2-24.1 1.1-.3 2.3-.2 3.4-.6h6.4c.1.2.4.1.6.1 6.4.7 12.2 3 17.3 7 4.4 3.3 7.8 7.5 10.9 12 .4.6.6.6 1 0 1.8-2.6 3.7-5.1 5.9-7.4 5.3-5.7 11.7-9.7 19.5-11.1 1.1-.3 2.4-.2 3.5-.6h6.2c.1.2.3.1.5.1 1.9.2 3.7.6 5.5 1.1 13.4 3.9 22.9 16.2 22.1 30.1-.6 11.7-6.5 20.1-16.8 25.4-5.1 2.8-10.7 3.5-16.5 3.4-7.6-.1-14.2-2.7-19.9-7.7-4-3.5-7.1-7.7-10-12.1-.4-.6-.6-.5-1 .1-1.8 2.7-3.7 5.4-5.9 8-3.9 4.4-8.4 8-14 9.9-6.9 2.4-13.9 2.5-20.9.6-10.1-2.9-17-9.3-20.8-19.1-.6-1.6-.9-3.4-1.4-5zm31.8 14.7c5.7.2 10.6-1.7 14.8-5.6 4.3-4 7.4-9 10.5-13.9.1-.3.1-.5-.1-.8-2.6-4.1-5.3-8.2-8.9-11.6-6.9-6.6-15-8.8-24.1-5.9-7.5 2.5-12.3 7.8-13.4 15.8-1.1 7.5 1.8 13.5 7.8 18 4 2.9 8.5 4.1 13.4 4zm63.4 0c2.2 0 4.4-.1 6.5-.7 7.9-2.4 13.1-7.3 14.6-15.5 1.5-8.1-1.6-14.6-8.4-19.2-7.5-5.2-18.4-4.7-26 1-5.1 3.8-8.5 8.9-11.9 14.2-.2.3-.1.5 0 .8 2.7 4.3 5.4 8.6 8.9 12.3 4.4 4.7 9.6 7.7 15.9 8.4.8.1 1.7.1 2.6.1.8-.4 1.6-.4 2.4-.4zM27 61.5h13.4c.6 0 .8-.2.8-.8v-4.2c0-.6-.2-.8-.8-.8H14c-.6 0-.8.2-.8.8v4.2c0 .6.2.8.8.8H27zm73.4 5.6H87c-.6 0-.8.2-.8.8v4.2c0 .6.2.8.8.8h26.4c.6 0 .8-.2.8-.8v-4.2c0-.6-.2-.8-.8-.8h-13zm0-11.3h-6.7c-.6 0-.8.2-.8.8v4.2c0 .6.2.8.8.8h6.7c.6 0 .8-.2.8-.8v-4.2c0-.6-.2-.8-.8-.8zm0 0M100.4 61.5h6.7c.6 0 .8-.2.8-.8v-4.2c0-.6-.2-.8-.8-.8h-6.7c-.6 0-.8.2-.8.8v4.2c0 .6.2.8.8.8zm0 0"/><path d="M66.8 37.5c14.8 0 26.8 12 26.8 26.8s-12 26.8-26.8 26.8-26.8-12-26.8-26.8 12-26.8 26.8-26.8zm0 3c-13.1 0-23.8 10.7-23.8 23.8s10.7 23.8 23.8 23.8 23.8-10.7 23.8-23.8S79.9 40.5 66.8 40.5zm.1 9.8c7.7 0 14 6.3 14 14s-6.3 14-14 14-14-6.3-14-14 6.3-14 14-14zm0 2c-6.6 0-12 5.4-12 12s5.4 12 12 12 12-5.4 12-12-5.4-12-12-12zm-.27.265c.43 0 .858.023 1.285.07 5.285.574 9.395 5.05 9.395 10.45 0 5.793-4.695 10.5-10.488 10.5-5.473 0-9.98-4.176-10.45-9.527-.004-.055-.012-.11-.012-.168v-.027c-.016-.258-.027-.52-.027-.778 0-5.793 4.703-10.52 10.297-10.52zm-.27.265c-.012.527-.004.793-.004.793zm0 0"/></g></svg>
