<svg role="img" viewBox="0 0 24 24" xmlns="http://www.w3.org/2000/svg"><title>Espressif</title><path d="M12.926 19.324a7.6 7.6 0 00-2.983-6.754 7.44 7.44 0 00-3.828-1.554.697.697 0 01-.606-.731.674.674 0 01.743-.617 8.97 8.97 0 018 9.805 7.828 7.828 0 01-.298 1.542l1.989.56a11.039 11.039 0 001.714-.651 12.159 12.159 0 00.217-2.343A12.57 12.57 0 007.212 6.171a5.53 5.53 0 00-2 0 4.354 4.354 0 00-2.16 1.337 4.274 4.274 0 001.909 6.856 9.896 9.896 0 001.074.195 4.011 4.011 0 013.337 3.954 3.965 3.965 0 01-.64 2.16l1.371.88a10.182 10.182 0 002.057.342 7.52 7.52 0 00.754-2.628m.16 4.73A13.073 13.073 0 01.001 10.983 12.982 12.982 0 013.83 1.737l.743.697a12.067 12.067 0 000 17.141 12.067 12.067 0 0017.141 0l.697.697a12.97 12.97 0 01-9.336 3.726M24 10.993A10.993 10.993 0 0012.949 0c-.389 0-.766 0-1.143.057l-.252.732a18.912 18.912 0 0111.588 11.576l.731-.263c0-.366.069-.732.069-1.143m-1.269 5.165A17.53 17.53 0 007.818 1.27a11.119 11.119 0 00-2.457 1.77v1.635A13.919 13.919 0 0119.268 18.57h1.634a11.153 11.153 0 001.829-2.412M5.36 3.04A18.907 18.907 0 00.343 11.576l.732.263A18.912 18.912 0 0112.663.263L12.411 0c-.491 0-.972.023-1.452.069A17.53 17.53 0 005.36 3.04m13.703 17.224a13.919 13.919 0 00-13.9-13.9v1.635A12.285 12.285 0 0119.268 20.3zm1.646-1.646A15.584 15.584 0 005.361 3.765v1.634a13.951 13.951 0 0113.714 13.714zM3.086 5.4v1.635a11.621 11.621 0 0111.553 11.553h1.634A13.254 13.254 0 003.086 5.4M1.452 7.033v1.634A9.957 9.957 0 0110.983 18.2h1.634a11.587 11.587 0 00-11.165-11.167m0 0A9.273 9.273 0 011.12 9.1a9.236 9.236 0 001.691 0 1.691 1.691 0 011.691 1.691"/></svg>
