<svg xmlns="http://www.w3.org/2000/svg" xml:space="preserve" viewBox="0 0 128 128"><path fill="#953a05" d="M23.188.019 114.438 20h9.874v108h-103.5a6.5 6.5 0 0 1-6.5-6.5V94.287L22.996.3Z"/><path fill="#ff6a00" d="M23.188 0h85.75a6.5 6.5 0 0 1 6.5 6.5V90h-92.25z"/><path fill="#ff9548" d="M23.188 90V0l-19.5 11.75v90z"/><path fill="#fff" d="M64.85 28.37v12.42h17.105v9.22H64.85v21.046H51.837V19h33.241v9.37zM52.003 102.532v4.312h5.938v3.202h-5.938v7.307h-4.52V99.278h11.543v3.254zM75.939 117.353h-3.951l-.232-1.291c-1.939 1.79-4.981 2.207-7.366 1.134-1.97-.886-3.124-3.232-3.127-5.142l-.017-12.776h4.52c.005 4.253-.02 8.506.009 12.758.006.998.524 2.095 1.573 2.364 1.442.37 3.094-.03 4.072-1.179V99.278h4.519zM86.448 117.766c-2.29 0-4.096-.507-5.397-1.55-1.298-1.04-1.997-2.556-2.117-4.518h4.26c.252 2.224 1.11 2.738 3.254 2.789 1.83.043 2.633-.778 2.633-1.756v-.542c0-.917-.456-1.342-1.161-1.653-.458-.202-1.079-.423-1.989-.723l-2.504-.826c-2.557-.844-3.9-2.09-3.9-4.545v-.645c0-.844.233-1.641.724-2.302.947-1.26 2.663-1.917 4.974-1.917 2.101 0 3.785.502 5.037 1.517 1.25 1.013 1.873 2.39 1.873 4.108H90.87c-.143-1.898-.95-2.411-2.899-2.411-.85 0-1.402.133-1.748.394-.35.263-.543.641-.543 1.126v.542c0 .77.39 1.194 1.189 1.545.43.187 1.016.397 1.948.703l2.497.827c2.71.896 4.063 2.17 4.063 4.623v.645c0 .944-.23 1.753-.718 2.44-.988 1.386-2.88 2.119-5.211 2.119z"/></svg>
