<svg role="img" viewBox="0 0 24 24" xmlns="http://www.w3.org/2000/svg"><title>KiCad</title><path d="M7.4668 7.3039c-.472.0238-.8477.4142-.8477.8906 0 .4918.3994.8906.8926.8906.4933 0 .8926-.3988.8926-.8906 0-.4918-.3993-.8906-.8926-.8906-.0154 0-.0297-.0008-.0449 0zM.25 8.0109c-.1394 0-.25.1214-.25.254v8.1777c0 .1325.1106.2539.25.2539h8.5215c.1394 0 .248-.1214.248-.254V8.2649c0-.1327-.1083-.2539-.248-.2539h-.2598c.011.0595.0176.121.0176.1836 0 .0605-.0054.1201-.0156.1777h.1445v7.963H.3613v-7.963h6.1485a1.0179 1.0179 0 0 1-.0157-.1777c0-.0628.0066-.1238.0176-.1836zm.2617.5117v7.664h7.9961v-7.664h-.0332a1.025 1.025 0 0 1-.4883.5703.8482.8482 0 0 1-.4746.1426.8483.8483 0 0 1-.4746-.1426 1.025 1.025 0 0 1-.4883-.5703zm21.5606.252c.0966.1084.1562.2266.1797.3555.0116.0615.0175.1992.0175.4101v1.664c-.2753-.2606-.6554-.3906-1.1386-.3906-.3662 0-.6896.1007-.9707.3028-.5946.4276-.8926 1.2249-.8926 2.3906 0 .3515.0469.67.1406.957.1347.41.3487.7335.6387.9707.3075.252.669.379 1.0879.379.495 0 .9034-.1318 1.2558-.3906.352-.2598.6074-.6289.7676-1.1074.0957-.2793.1426-.6.1426-.957v-1.5332c0-.209.0059-.3477.0175-.4121.0235-.1279.082-.2461.1758-.3555h-1.7187v5.5664c-.2606-.2011-.5899-.3028-.9883-.3028-.4697 0-.8848.1504-1.2383.4492-.3545.3007-.6289.7383-.8261 1.3027-.1279.373-.1944.7715-.1944 1.2012 0 .5625.1015 1.0449.3027 1.4394.2021.3945.4746.6895.8203.877.3242.1748.6836.2627 1.0742.2627.4082 0 .7696-.0976 1.082-.293v.2285h1.5762V8.7754zm.3535.252c.3789 0 .6924.1318.9375.3907.2451.2597.3691.5879.3691 1.0058 0 .4199-.1201.748-.3594 1.0059-.2402.2578-.5586.3867-.957.3867-.3994 0-.7139-.1289-.9453-.3867-.2305-.259-.3457-.5859-.3457-1.0059 0-.418.1152-.7461.3457-1.0058.2305-.2579.5469-.3907.9551-.3907zm-9.2832 0c.3789 0 .6836.1338.916.3984.2324.2667.3496.5957.3496 1.0059 0 .4101-.1172.7343-.3496.9726-.2324.2383-.5371.3574-.916.3574-.3692 0-.6699-.1191-.9043-.3574-.2324-.2383-.3496-.5625-.3496-.9726 0-.4102.1172-.7392.3496-1.0059.2344-.2646.535-.3984.9043-.3984zM12 4.1895c-.9707 0-1.8418.2637-2.6113.793-.7695.5274-1.3614 1.2656-1.7754 2.209h1.7168c.3213-.6504.75-1.1504 1.2793-1.5.5312-.3496 1.1054-.5254 1.7226-.5254.8887 0 1.6387.3144 2.2539.9414.6152.6289.9238 1.3965.9238 2.3047 0 .8984-.3144 1.666-.9394 2.2969-.627.6308-1.3731.9453-2.2383.9453-.7656 0-1.4277-.2637-1.9941-.791-.5645-.5293-.9063-1.1973-1.0254-2.0078h-1.6738c.1387 1.3047.668 2.3691 1.5898 3.1934.9219.8242 2.0196 1.2363 3.293 1.2363 1.3965 0 2.5879-.4863 3.5722-1.459.9864-.9727 1.4785-2.1485 1.4785-3.5254 0-1.3672-.4863-2.5293-1.459-3.4863-.9727-.957-2.1543-1.4355-3.5449-1.4355zm-.0195 2.8457c-.502 0-.9336.1757-.9336.1757-.0878.3867-.1308.6328-.1308.6328z"/></svg>
