<svg xmlns="http://www.w3.org/2000/svg" viewBox="0 0 128 128"><defs><linearGradient id="matlab-original-a" gradientUnits="userSpaceOnUse" x1="16.803" y1="16.631" x2="15.013" y2="22.411" gradientTransform="matrix(4 0 0 -4 0 128)"><stop offset="0" stop-color="#512"/><stop offset=".23" stop-color="#523"/><stop offset=".36" stop-color="#534"/><stop offset=".51" stop-color="#645"/><stop offset=".66" stop-color="#568"/><stop offset=".84" stop-color="#29d"/></linearGradient><linearGradient id="matlab-original-b" gradientUnits="userSpaceOnUse" x1="29.71" y1="18.983" x2="11.71" y2="14.563" gradientTransform="scale(4)"><stop offset=".081" stop-color="#c33"/><stop offset=".189" stop-color="#de5239"/><stop offset=".313" stop-color="#f06e3e"/><stop offset=".421" stop-color="#fa8042"/><stop offset=".5" stop-color="#fe8643"/><stop offset=".58" stop-color="#fa7f42"/><stop offset=".696" stop-color="#ef6c3e"/><stop offset=".833" stop-color="#dc4c37"/><stop offset=".916" stop-color="#cf3633"/></linearGradient></defs><path d="M0 64s24.047-48 53.438-35.52L80 64l-18.875 3.281S49.016 38.797 37.219 46c-8.547 5.703-9.422 34.703-9.422 34.703zm0 0" fill="url(#matlab-original-a)"/><path d="M53.434 28.484C70.078 20.266 80 40 80 40L55.484 67.273S42.473 36.434 53.434 28.484zm0 0" fill="#1a9e1c"/><path d="M54.516 67.84L80 40s22.004-26.758 48-26.758c0 0-16.004 10.758-21.32 35.078C101.23 73.078 108.086 92 83.195 92 64 92 54.516 67.84 54.516 67.84zm0 0" fill="url(#matlab-original-b)"/><path d="M128 13.242c-25.996 0-48 26.758-48 26.758L62.324 67.512c0 .004.473.965 1.348 2.375 3.95 6.46 15.328 21.48 14.52C102.64 60 94.52 13.198 83.2 13.198zm0 0" fill="url(#matlab-original-b)"/></svg>
