<svg xmlns="http://www.w3.org/2000/svg" viewBox="0 0 128 128"><linearGradient id="python-original-a" gradientUnits="userSpaceOnUse" x1="70.252" y1="1237.476" x2="170.659" y2="1151.089" gradientTransform="matrix(.563 0 0 -.568 -29.215 707.817)"><stop offset="0" stop-color="#5A9FD4"/><stop offset="1" stop-color="#306998"/></linearGradient><linearGradient id="python-original-b" gradientUnits="userSpaceOnUse" x1="209.474" y1="1098.811" x2="173.62" y2="1149.537" gradientTransform="matrix(.563 0 0 -.568 -29.215 707.817)"><stop offset="0" stop-color="#FFD43B"/><stop offset="1" stop-color="#FFE873"/></linearGradient><path fill="url(#python-original-a)" d="M63.391 1.988c-4.222.02-8.252.379-11.8 1.007-10.45 1.846-12.346 5.71-12.346 12.837v9.411h24.693v3.137H29.977c-7.176 0-13.46 4.313-15.426 12.521-2.268 9.405-2.368 15.275 0 25.096 1.755 7.311 5.947 12.519 13.124 12.519h8.491V67.234c0-8.151 7.051-15.34 15.426-15.34h24.665c6.866 0 12.346-5.654 12.346-12.548V15.833c0-6.693-5.646-11.72-12.346-12.83-1.045-.173-2.146-.291-3.312-.324zm-11.056 4.23c2.39 0 4.326 1.957 4.326 4.373 0 2.413-1.936 4.368-4.326 4.368-2.388 0-4.326-1.955-4.326-4.368 0-2.416 1.938-4.374 4.326-4.374z"/><path fill="url(#python-original-b)" d="M91.682 28.38v10.966c0 8.5-7.208 15.655-15.426 15.655H51.591c-6.756 0-12.346 5.783-12.346 12.549v23.515c0 6.693 5.818 10.626 12.346 12.547 7.816 2.297 15.312 2.713 24.665 0 6.216-1.801 12.346-5.423 12.346-12.547v-9.412H63.938v-3.138h37.012c7.176 0 9.852-5.005 12.348-12.519 2.578-7.735 2.467-15.174 0-25.096-1.774-7.145-5.161-12.521-12.348-12.521h-9.268zM77.809 87.927c2.389 0 4.326 1.956 4.326 4.374 0 2.415-1.937 4.372-4.326 4.372-2.39 0-4.326-1.957-4.326-4.372 0-2.418 1.936-4.374 4.326-4.374z"/></svg>
